<svg version="1.2" xmlns="http://www.w3.org/2000/svg" viewBox="0 0 180 180" width="180" height="180"><style>tspan{white-space:pre}.a{fill:#c45f26}.b{fill:#465545}.c{fill:#742635}.d{fill:#fff}.e{fill:#2d4975}.f{font-size: 5px;fill: #ffffff;font-weight: 800;font-family: "Campton"}</style><path class="a" d="m179.5 103.9l-5.6 15-14.9 5.6-45-45c-5.7-13.2-21-19.2-34.1-13.6l22.7-22.7c4.7-4.3 12.2-4.1 16.7 0.5z"/><path class="b" d="m76 179.1l-15-5.6-5.5-14.9 44.9-45c13.2-5.7 19.2-21 13.6-34.1l22.7 22.7c4.4 4.8 4.2 12.2-0.5 16.7z"/><path class="c" d="m0.8 75.7l5.6-15.1 14.9-5.5 45 44.9c5.7 13.3 21 19.3 34.1 13.6l-22.7 22.7c-4.7 4.4-12.2 4.2-16.7-0.4z"/><path class="d" d="m104.3 0.4l15 5.6 5.5 15-44.9 44.9c-13.2 5.7-19.2 21.1-13.6 34.1l-22.7-22.7c-4.4-4.7-4.2-12.2 0.5-16.7z"/><path fill-rule="evenodd" class="d" d="m70.4 118.9q-0.3 0.1-0.7 0.1-0.3 0-0.6-0.1c-0.7-0.3-1.3-1-1.3-1.8 0-1.1 0.9-1.9 1.9-1.9 1.1 0 1.9 0.8 1.9 1.9 0 0.8-0.5 1.5-1.2 1.8zm0.3-1.8c0-0.5-0.4-1-1-1-0.5 0-0.9 0.5-0.9 1 0 0.5 0.4 0.9 0.9 0.9 0.6 0 1-0.4 1-0.9z"/><path class="d" d="m64.9 124.7l0.5 1.1-1.2-0.2-1.3-0.1 0.8-1 0.8-1z"/><path class="d" d="m75.3 125.6l-1.2 0.2 0.4-1.1 0.5-1.2 0.8 1 0.8 1z"/><path class="d" d="m74.2 128.8q-0.4 0.1-0.8 0.2c-1.4 0.4-2.5 0.6-3.3 1.6-0.2 0.2-0.5 0.2-0.7 0-0.8-1-1.9-1.2-3.3-1.6q-0.4-0.1-0.8-0.2c-1-0.4-2-1-1.9-2.2q0.1-0.4 0.2-0.7l0.5 0.1 0.5 0.1q0.2 0.5 0.7 0.8c0.7 0.4 3.1 0.9 3.4 0 0.1-0.6 0.2-3.5 0.3-6h-1.5c-0.2 0-0.4-0.2-0.4-0.4 0-0.3 0.2-0.5 0.4-0.5h1.6q0-0.4 0-0.7 0.3 0.1 0.6 0.1 0.4 0 0.7-0.1 0 0.3 0 0.7h1.6c0.2 0 0.4 0.2 0.4 0.5 0 0.2-0.2 0.4-0.4 0.4h-1.6c0.1 2.5 0.2 5.4 0.4 6 0.3 0.9 2.7 0.4 3.4 0q0.5-0.3 0.6-0.8l0.6-0.1 0.5-0.1q0.1 0.3 0.2 0.7c0.1 1.2-0.9 1.8-1.9 2.2z"/><path fill-rule="evenodd" class="e" d="m57.1 70.6c-1.3 0-2.4-0.5-3.4-1.3-2.2-1.8-2.4-5.1-0.6-7.3 1-1.1 2.5-1.8 4-1.8 1.2 0 2.4 0.4 3.3 1.2 1.1 0.9 1.7 2.2 1.8 3.6 0.2 1.3-0.3 2.7-1.2 3.7-1 1.2-2.4 1.9-3.9 1.9zm0-9c-1.1 0-2.2 0.5-2.9 1.3-1.3 1.6-1.1 4 0.4 5.3 0.7 0.6 1.6 0.9 2.5 0.9 1.1 0 2.1-0.4 2.8-1.3 0.7-0.8 1-1.7 0.9-2.7-0.1-1-0.5-1.9-1.3-2.6-0.7-0.6-1.5-0.9-2.4-0.9z"/><path class="e" d="m53.2 71l-1.1-0.9 1.5-1.8 1.1 0.9z"/><path class="e" d="m50.9 74.5c-0.2 0.3-0.7 0.3-1 0l-0.7-0.6c-0.3-0.2-0.3-0.7-0.1-1l2.4-2.7c0.2-0.3 0.7-0.4 1-0.1l0.7 0.6c0.3 0.2 0.3 0.7 0.1 1z"/><path class="e" d="m58.1 62.8c0.1 0.5-0.7 0-1.6 0.2-0.9 0.2-1.6 1.1-1.7 0.6-0.1-0.5 0.9-1.2 1.4-1.3 0.6-0.2 1.8 0 1.9 0.5z"/><path class="e" d="m59.1 63.2c0 0.2-0.3 0.2-0.5 0.1-0.2-0.1-0.3-0.1-0.3-0.4 0.1-0.2 0.1-0.3 0.4-0.2 0.2 0.1 0.5 0.3 0.4 0.5z"/><path class="d" d="m111.1 49c0 0.1-0.1 0.2-0.2 0.2-0.2 0-0.3-0.1-0.3-0.2v-1.5c0-0.1 0.1-0.2 0.3-0.2 0.1 0 0.2 0.1 0.2 0.2z"/><path class="d" d="m106.1 51.2c0.1 0.1 0.1 0.2 0 0.3-0.1 0.1-0.2 0.1-0.3 0l-1.1-0.9c-0.1-0.1-0.1-0.2 0-0.3 0.1-0.1 0.2-0.1 0.3-0.1z"/><path class="d" d="m104.4 56.4c0.1 0 0.2 0.1 0.2 0.2 0 0.2-0.1 0.3-0.2 0.3l-1.4 0.1c-0.1 0.1-0.2 0-0.2-0.2 0-0.1 0-0.2 0.1-0.2z"/><path class="d" d="m117.8 56.5c-0.1 0-0.2-0.2-0.2-0.3 0.1-0.1 0.2-0.2 0.3-0.2l1.4 0.1c0.1 0 0.2 0.2 0.2 0.3 0 0.1-0.1 0.2-0.3 0.2z"/><path class="d" d="m116.1 51.2c0 0.1-0.2 0.1-0.3 0-0.1-0.1-0.1-0.3 0-0.3l1.1-1c0.1-0.1 0.2 0 0.3 0.1 0.1 0.1 0.1 0.2 0 0.3z"/><path fill-rule="evenodd" class="d" d="m113 59.8v2.4c0 0.5-0.3 0.8-0.8 0.9q0 0.2-0.1 0.4c-0.2 0.5-0.6 0.8-0.9 0.8h-0.7c-0.3 0-0.7-0.3-0.9-0.8q-0.1-0.2-0.1-0.4c-0.4-0.1-0.8-0.4-0.8-0.9v-2.4c-1.7-0.9-3-2.6-3-4.7 0-2.9 2.3-5.2 5.2-5.2 2.8 0 5.1 2.3 5.1 5.2 0 2.1-1.2 3.8-3 4.7zm-4-7.6c-0.1-0.1-0.2-0.2-0.3-0.1-0.9 0.7-1.5 1.8-1.5 3 0 1.1 0.5 2.1 1.3 2.8 0.1 0.1 0.3 0.1 0.3-0.1 0.1-0.1 0.1-0.2 0-0.3-0.7-0.6-1.1-1.4-1.1-2.4 0-1.1 0.5-2 1.2-2.6 0.1-0.1 0.2-0.2 0.1-0.3zm3.5 8.6h-3.3v1.4q0 0.2 0.2 0.4 0.1 0 0.2 0.1h2.5q0.1-0.1 0.2-0.1 0.2-0.2 0.2-0.4z"/><path class="d" d="m76.1 73c3.4-2.8 7.7-4.6 12.1-5l0.5 5.8c-3.3 0.3-6.3 1.6-8.9 3.7z"/><path class="c" d="m68.3 87.9c0.4-4.5 2.2-8.7 5-12.1l4.5 3.7c-2.1 2.5-3.4 5.6-3.7 8.9z"/><path class="d" d="m100.5 77.5c-2.6-2.1-5.6-3.4-8.9-3.7l0.5-5.8c4.4 0.4 8.7 2.2 12.1 5z"/><path class="a" d="m106.2 88.4c-0.3-3.3-1.6-6.4-3.7-8.9l4.5-3.7c2.8 3.4 4.6 7.6 5 12.1z"/><path class="b" d="m79.8 102.1c2.6 2.1 5.6 3.4 8.9 3.7l-0.5 5.8c-4.4-0.4-8.7-2.2-12.1-5.1z"/><path class="c" d="m74.1 91.2c0.3 3.2 1.6 6.3 3.7 8.8l-4.5 3.8c-2.8-3.5-4.6-7.7-5-12.1z"/><path class="b" d="m104.2 106.5c-3.4 2.9-7.7 4.7-12.1 5.1l-0.5-5.8c3.3-0.3 6.3-1.6 8.9-3.7z"/><path class="a" d="m112 91.7c-0.4 4.4-2.2 8.6-5 12.1l-4.5-3.8c2.1-2.5 3.4-5.6 3.7-8.8z"/><text style="transform:matrix(1,0,0,1,75.825,84.69)" ><tspan x="5.9" y="3.9" class="f">O QUE
</tspan><tspan x="0" y="10.1" class="f">FAZEMOS?
</tspan></text><path fill-rule="evenodd" class="d" d="m16.7 75.4l-1.2 0.5-1.3-1.3 7.2-2.8 1.1 1.2-2.9 7-1.3-1.3 0.5-1.2zm3.8-1.6l-2.3 1 1.2 1.3z"/><path class="d" d="m25.4 86l-1.2-1.3 2.5-2.4-2.8 0.5-0.7-0.6v-0.1l0.6-2.8-2.5 2.5-1.2-1.2 5-4.9 0.9 0.9-0.9 4.4 4.4-0.9 0.9 1z"/><path fill-rule="evenodd" class="d" d="m33.9 84.4q1.1 1.1 1.1 2.6 0 1.5-1.1 2.6-1.1 1.1-2.6 1.1-1.5-0.1-2.7-1.2-1.1-1.1-1.1-2.6 0.1-1.5 1.2-2.6 1.1-1.1 2.6-1.1 1.5 0.1 2.6 1.2zm-4.1 4q0.6 0.6 1.4 0.6 0.8-0.1 1.4-0.7 0.6-0.6 0.7-1.4 0-0.8-0.6-1.4-0.6-0.6-1.4-0.6-0.8 0.1-1.4 0.6-0.6 0.6-0.6 1.5-0.1 0.8 0.5 1.4z"/><path class="d" d="m40.1 91.3c0.2 0.7 0 1.5-0.6 2.2l-1.2-1.3q0.5-0.7-0.2-1.4c-0.4-0.4-0.8-0.5-1.2-0.2-0.2 0.2-0.2 0.5 0.1 1l0.6 0.9c0.7 1.2 0.8 2.1 0 2.9q-0.8 0.7-1.7 0.6-1-0.2-2-1.1-0.9-0.9-1-2-0.2-1.1 0.6-2l1.2 1.2c-0.4 0.6-0.2 1.2 0.3 1.8 0.5 0.5 0.9 0.5 1.2 0.3q0.3-0.3-0.1-1l-0.7-1c-0.7-1.2-0.7-2.1 0.1-2.9q0.7-0.7 1.7-0.6 1 0.1 1.9 1 0.7 0.7 1 1.6z"/><path class="d" d="m43.1 96.2l-3.9 3.8-1.2-1.2 3.9-3.8-1.6-1.6 1.1-1.1 4.4 4.4-1.2 1.1z"/><path fill-rule="evenodd" class="d" d="m44 102.1l-1.4 1.4-1.3-1.3 5.1-4.9 2.1 2.2q0.9 1 1 2 0.1 1-0.7 1.8c-0.7 0.7-1.6 0.9-2.5 0.6l-0.5 2.9-1.4-1.5 0.4-2.5zm2-0.1c0.5 0.5 1.1 0.5 1.5 0.1 0.4-0.3 0.3-1-0.2-1.5l-0.9-0.9-1.3 1.3z"/><path fill-rule="evenodd" class="d" d="m48.5 107.9l-1.1 0.5-1.3-1.3 7.1-2.9 1.2 1.2-3 7.1-1.3-1.3 0.5-1.2zm3.8-1.6l-2.3 1 1.3 1.3z"/><path fill-rule="evenodd" class="d" d="m59.5 118c-0.8 0.8-2.1 0.7-3.1-0.4l-2.6-2.7 5-4.9 2.4 2.5c1.1 1.1 1.2 2.2 0.4 3-0.5 0.5-1.2 0.7-1.8 0.4 0.4 0.7 0.3 1.5-0.3 2.1zm-1.5-4.7l1 1c0.4 0.5 0.9 0.5 1.2 0.2q0.5-0.5-0.2-1.2l-1-1zm-0.8 3.1c0.5 0.5 1 0.5 1.3 0.2q0.5-0.5-0.2-1.2l-1.3-1.2-0.9 1z"/><path fill-rule="evenodd" class="e" d="m66.7 59l0.5 1.2-1.4 1.3-2.7-7.3 1.2-1.1 7.1 3.1-1.3 1.3-1.2-0.5zm-1.6-3.9l1 2.3 1.3-1.2z"/><path class="e" d="m77.6 50.4l-1.3 1.2-2.5-2.6 0.6 2.9-0.8 0.7-2.8-0.7 2.5 2.6-1.3 1.2-4.9-5.2 0.9-0.9 4.5 1-0.8-4.5 1-0.9z"/><path fill-rule="evenodd" class="e" d="m76.1 41.8q1.2-1.1 2.7-1.1 1.6 0.1 2.6 1.2 1.1 1.1 1 2.7 0 1.5-1.2 2.6-1.2 1.1-2.7 1.1-1.5-0.1-2.6-1.2-1-1.2-1-2.7 0.1-1.5 1.2-2.6zm4 4.2q0.6-0.6 0.6-1.4 0-0.8-0.6-1.5-0.6-0.6-1.4-0.6-0.8-0.1-1.4 0.5-0.7 0.6-0.7 1.4 0 0.8 0.6 1.5 0.6 0.6 1.5 0.6 0.8 0.1 1.4-0.5z"/><path class="e" d="m83.3 35.6c0.7-0.1 1.5 0 2.2 0.6l-1.3 1.3q-0.8-0.6-1.5 0.1c-0.4 0.4-0.5 0.9-0.2 1.2 0.2 0.3 0.5 0.2 1-0.1l0.9-0.5c1.3-0.7 2.2-0.8 3 0q0.7 0.8 0.5 1.8-0.1 1-1.1 1.9-1 0.9-2 1.1-1.1 0.1-2.1-0.7l1.3-1.2c0.5 0.4 1.2 0.3 1.8-0.3 0.5-0.4 0.6-0.9 0.3-1.1q-0.3-0.4-1 0l-1 0.6c-1.2 0.8-2.2 0.8-2.9-0.1q-0.8-0.7-0.6-1.7 0.1-1 1-1.9 0.7-0.7 1.7-1z"/><path class="e" d="m88.3 32.7l3.8 4-1.3 1.2-3.8-4-1.6 1.6-1.1-1.2 4.6-4.3 1.1 1.1z"/><path fill-rule="evenodd" class="e" d="m94.3 31.9l1.4 1.5-1.3 1.2-4.9-5.2 2.3-2.2q1-0.9 2-0.9 1.1-0.1 1.9 0.7c0.6 0.7 0.8 1.7 0.5 2.6l3 0.5-1.6 1.4-2.5-0.4zm-0.2-2.1c0.6-0.4 0.7-1.1 0.3-1.5-0.4-0.4-1.1-0.3-1.6 0.1l-0.9 0.9 1.3 1.4z"/><path fill-rule="evenodd" class="e" d="m100.3 27.4l0.5 1.2-1.4 1.3-2.7-7.3 1.2-1.2 7.1 3.2-1.3 1.3-1.2-0.6zm-1.6-3.9l1 2.4 1.3-1.3z"/><path fill-rule="evenodd" class="e" d="m108.1 20l0.4 1.2-1.3 1.3-2.7-7.3 1.2-1.1 7.1 3.1-1.4 1.3-1.2-0.5zm-1.5-3.9l0.9 2.4 1.4-1.3z"/><path fill-rule="evenodd" class="d" d="m72.7 163.1l0.5 1.2-1.4 1.3-2.7-7.2 1.2-1.2 7 3.1-1.3 1.2-1.2-0.5zm-1.6-3.8l1 2.3 1.3-1.2z"/><path class="d" d="m83.3 154.5l-1.2 1.2-2.5-2.5 0.6 2.8-0.7 0.7v-0.1l-2.8-0.6 2.4 2.5-1.2 1.2-4.9-5 0.9-0.9 4.4 1-0.8-4.5 1-0.9z"/><path fill-rule="evenodd" class="d" d="m81.8 146q1.1-1.1 2.6-1.1 1.5 0 2.6 1.2 1.1 1.1 1 2.6 0 1.5-1.1 2.6-1.2 1.1-2.7 1-1.5 0-2.5-1.1-1.1-1.1-1.1-2.6 0.1-1.5 1.2-2.6zm3.9 4.1q0.7-0.6 0.6-1.4 0-0.8-0.6-1.4-0.5-0.6-1.4-0.7-0.8 0-1.4 0.6-0.6 0.5-0.6 1.4 0 0.8 0.6 1.4 0.6 0.6 1.4 0.6 0.8 0.1 1.4-0.5z"/><path class="d" d="m88.8 139.9c0.7-0.2 1.5-0.1 2.1 0.5l-1.2 1.2q-0.8-0.5-1.5 0.2c-0.4 0.4-0.5 0.9-0.2 1.2 0.3 0.3 0.6 0.2 1-0.1l0.9-0.5c1.2-0.7 2.1-0.9 2.9 0q0.8 0.7 0.6 1.7-0.1 1-1.1 1.9-0.9 0.9-2 1.1-1.1 0.1-2-0.7l1.3-1.2c0.5 0.4 1.1 0.3 1.7-0.3 0.5-0.4 0.6-0.8 0.3-1.1q-0.3-0.3-1 0.1l-1 0.6c-1.2 0.7-2.1 0.7-2.9-0.1q-0.7-0.7-0.6-1.7 0.2-1 1.1-1.9 0.6-0.6 1.6-0.9z"/><path class="d" d="m93.7 136.9l3.8 3.9-1.3 1.2-3.7-3.9-1.7 1.6-1-1.2 4.4-4.3 1.1 1.1z"/><path fill-rule="evenodd" class="d" d="m99.6 136l1.4 1.5-1.3 1.2-4.9-5.1 2.3-2.1q0.9-0.9 1.9-1 1.1-0.1 1.9 0.8c0.6 0.7 0.8 1.6 0.5 2.5l3 0.4-1.5 1.5-2.6-0.4zm-0.1-2.1c0.5-0.4 0.6-1.1 0.2-1.5-0.4-0.4-1-0.3-1.5 0.2l-0.9 0.9 1.3 1.3z"/><path fill-rule="evenodd" class="d" d="m105.4 131.5l0.5 1.2-1.3 1.3-2.8-7.1 1.2-1.2 7.1 3-1.4 1.3-1.1-0.5zm-1.6-3.8l0.9 2.3 1.3-1.3z"/><path class="d" d="m114 120.9l1.3-1.3q0.8 1.1 0.7 2.4-0.1 1.3-1.1 2.3-1.1 1.1-2.6 1.1-1.5 0-2.6-1.2-1.1-1.1-1.1-2.6 0.1-1.5 1.2-2.6 1.1-1 2.3-1 1.3-0.1 2.4 0.8l-1.3 1.2c-0.8-0.5-1.6-0.5-2.2 0.2q-0.7 0.6-0.7 1.4 0.1 0.8 0.7 1.4 0.6 0.6 1.4 0.7 0.7 0 1.4-0.6c0.6-0.6 0.7-1.4 0.2-2.2z"/><path fill-rule="evenodd" class="d" d="m122.5 70.4l-1.1 0.5-1.1-1.2 6.2-2.5 1 1-2.5 6.2-1.1-1.2 0.4-1zm3.3-1.4l-2 0.8 1.1 1.2z"/><path class="d" d="m130.1 79.5l-1-1.1 2.1-2.2-2.4 0.5v0.1l-0.6-0.6 0.5-2.5-2.2 2.2-1-1.1 4.3-4.3 0.8 0.8-0.8 3.8 3.8-0.8 0.8 0.8z"/><path fill-rule="evenodd" class="d" d="m137.5 78q0.9 0.9 1 2.2 0 1.3-1 2.3-0.9 0.9-2.2 0.9-1.3 0-2.3-0.9-1-1-1-2.3 0-1.3 0.9-2.3 1-0.9 2.3-0.9 1.3 0 2.3 1zm-3.5 3.5q0.5 0.5 1.2 0.5 0.7-0.1 1.2-0.6 0.6-0.5 0.6-1.2 0-0.7-0.5-1.2-0.5-0.6-1.2-0.5-0.7 0-1.3 0.5-0.5 0.5-0.5 1.3 0 0.7 0.5 1.2z"/><path class="d" d="m142.9 83.9c0.2 0.6 0.1 1.3-0.4 1.9l-1.1-1.1q0.5-0.6-0.1-1.2c-0.4-0.4-0.8-0.5-1.1-0.2-0.2 0.2-0.2 0.5 0.1 0.9l0.5 0.7c0.6 1.1 0.8 1.8 0.1 2.5q-0.7 0.7-1.6 0.6-0.8-0.1-1.6-0.9-0.8-0.8-1-1.7-0.1-1 0.5-1.8l1.1 1.1c-0.3 0.4-0.2 1 0.3 1.5 0.4 0.4 0.8 0.4 1 0.2q0.3-0.3-0.1-0.8l-0.5-0.9c-0.7-1-0.7-1.8 0-2.5q0.6-0.6 1.4-0.6 0.9 0.1 1.7 0.9 0.6 0.6 0.8 1.4z"/><path class="d" d="m145.6 88.1l-3.3 3.4-1.1-1.1 3.3-3.4-1.3-1.3 0.9-1 3.9 3.8-1 1z"/><path fill-rule="evenodd" class="d" d="m146.5 93.2l-1.2 1.2-1.1-1.1 4.3-4.3 1.9 1.9q0.8 0.8 0.9 1.7 0.1 0.9-0.6 1.6c-0.6 0.6-1.4 0.8-2.2 0.5l-0.3 2.6-1.3-1.3 0.3-2.2zm1.7-0.2c0.5 0.5 1 0.5 1.4 0.2 0.3-0.4 0.2-0.9-0.2-1.3l-0.8-0.8-1.2 1.1z"/><path fill-rule="evenodd" class="d" d="m150.5 98.1l-1 0.5-1.1-1.1 6.1-2.6 1 1-2.4 6.2-1.2-1.1 0.5-1.1zm3.2-1.4l-2 0.9 1.1 1.1z"/><path fill-rule="evenodd" class="d" d="m161.2 101.6q1 1 1.1 2.2 0 1.3-0.9 2.2-1 1-2.2 1-1.3-0.1-2.3-1.1l-1.7-1.7 4.2-4.3zm-3.3 3.3q0.5 0.5 1.2 0.6 0.7-0.1 1.3-0.6 0.5-0.5 0.4-1.2 0-0.7-0.5-1.2l-0.7-0.6-2.3 2.4z"/><path fill-rule="evenodd" class="d" d="m127.7 111.8c0 3.2-2.6 5.8-5.7 5.8-3.2 0-5.8-2.6-5.8-5.8 0-3.2 2.6-5.8 5.8-5.8 3.1 0 5.7 2.6 5.7 5.8zm-0.8 0c0-2.7-2.2-4.9-4.9-4.9-2.7 0-4.9 2.2-4.9 4.9 0 2.7 2.2 4.9 4.9 4.9 2.7 0 4.9-2.2 4.9-4.9z"/><path class="d" d="m121.7 108v-0.6c0-0.1 0.1-0.2 0.3-0.2 0.1 0 0.2 0.1 0.2 0.2v0.6c0 0.2-0.1 0.3-0.2 0.3-0.2 0-0.3-0.1-0.3-0.3z"/><path class="d" d="m122.2 115.5v0.6c0 0.1-0.1 0.3-0.2 0.3-0.2 0-0.3-0.2-0.3-0.3v-0.6c0-0.1 0.1-0.3 0.3-0.3 0.1 0 0.2 0.2 0.2 0.3z"/><path class="d" d="m118.5 111.8c0 0.1-0.1 0.2-0.3 0.2h-0.6c-0.1 0-0.2-0.1-0.2-0.2 0-0.2 0.1-0.3 0.2-0.3h0.6c0.2 0 0.3 0.1 0.3 0.3z"/><path class="d" d="m126.6 111.8c0 0.1-0.2 0.2-0.3 0.2h-0.6c-0.1 0-0.3-0.1-0.3-0.2 0-0.2 0.2-0.3 0.3-0.3h0.6c0.1 0 0.3 0.1 0.3 0.3z"/><path class="d" d="m121.8 112.4l-2.5 1.9c-0.1 0.1-0.3 0.1-0.4 0-0.1-0.2 0-0.3 0.1-0.4l2.4-1.9c-0.2-0.3 0-0.7 0.3-0.8v-1.8c0-0.2 0.1-0.3 0.3-0.3 0.1 0 0.2 0.1 0.2 0.3v1.8c0.7 0.3 0.4 1.3-0.4 1.2z"/></svg>