<svg version="1.2" xmlns="http://www.w3.org/2000/svg" viewBox="0 0 254 195" height="200">
<defs>
  <clipPath clipPathUnits="userSpaceOnUse" id="cp1">
    <path d="m253.71 10.05v184.74h-70.75v-107.23c24.22-21.79 48.43-47.48 70.75-77.51z"/>
  </clipPath>
  <linearGradient id="P" gradientUnits="userSpaceOnUse"/>
    <linearGradient id="g1" x1="167.5" y1="214.8" x2="167.5" y2="-8.3" href="#P">
    <stop stop-color="#0b1d2f"/>
    <stop offset="1" stop-color="#03bfeb"/>
  </linearGradient>
  <clipPath clipPathUnits="userSpaceOnUse" id="cp2">
    <path d="m247.64 4.23c-1.81 2.34-97.15 134.32-247 179.56v-89.36c132.44 10.2 245-88.45 247-90.2z"/>
  </clipPath>
  <linearGradient id="g2" x1="-225.3" y1="40" x2="176.3" y2="-39.1" href="#P">
    <stop stop-color="#ff3d2d"/>
    <stop offset="1" stop-color="#ffa151"/>
  </linearGradient>
  <clipPath clipPathUnits="userSpaceOnUse" id="cp3">
    <path d="m248.84-0.39c-1.78 2.35-95.78 134.21-243.53 179.4v-89.27c130.58 10.18 241.56-88.38 243.53-90.13z"/>
  </clipPath>
  <linearGradient id="g3" x1="356.1" y1="198.5" x2="-83.6" y2="197" href="#P">
    <stop stop-color="#0b1d2f"/>
    <stop offset="1" stop-color="#03bfeb"/>
  </linearGradient>
  <clipPath clipPathUnits="userSpaceOnUse" id="cp4">
    <path d="m164.76 100.39v93.62h-70.75v-43.24c21.89-13.21 46.13-29.83 70.75-50.38z"/>
  </clipPath>
  <linearGradient id="g4" x1="82.2" y1="222.1" x2="82.2" y2="53.6" href="#P">
    <stop stop-color="#0b1d2f"/>
    <stop offset="1" stop-color="#03bfeb"/>
  </linearGradient>
  <clipPath clipPathUnits="userSpaceOnUse" id="cp5">
    <path d="m78.27 162.36v32.25h-70.76q29.22-9.29 70.76-32.25z"/>
  </clipPath>
  <linearGradient id="g5" x1="-5.1" y1="231.3" x2="-5.1" y2="90.3" href="#P">
    <stop stop-color="#0b1d2f"/>
    <stop offset="1" stop-color="#03bfeb"/>
  </linearGradient>
</defs>
  <style>tspan{white-space:pre}.a{fill:url(#g1)}.b{fill:url(#g2)}.c{fill:url(#g3)}.d{fill:url(#g4)}.e{fill:url(#g5)}</style>
  <g clip-path="url(#cp1)">
    <path class="a" d="m222.2 214.8c-29.1 0-52.7-23.6-52.7-52.7v-117.7c0-29.1 23.6-52.7 52.7-52.7 29.1 0 52.7 23.6 52.7 52.7v117.7c0 29.1-23.6 52.7-52.7 52.7z"/>
  </g>
  <g clip-path="url(#cp2)">
    <path class="b" d="m326.1-32.4l-280.7 279.9-107.5-107.2 162.9-162.5c69.9 3.7 145.8 1.5 225.3-10.2z"/>
  </g>
  <g clip-path="url(#cp3)">
    <path class="c" d="m356.7 92.8c-0.2 57.4-46.9 103.7-104.3 103.5l-232.2-0.8c-57.4-0.2-103.8-46.9-103.6-104.3 0.2-57.4 46.9-103.7 104.3-103.5l232.2 0.8c57.4 0.2 103.8 46.9 103.6 104.3z"/>
  </g>
  <g clip-path="url(#cp4)">
    <path class="d" d="m128.9 222.1c-24.7 0-44.7-17.8-44.7-39.8v-88.9c0-21.9 20-39.8 44.7-39.8 24.6 0 44.7 17.9 44.7 39.8v88.9c0 22-20.1 39.8-44.7 39.8z"/>
  </g>
  <g clip-path="url(#cp5)">
    <path class="e" d="m47.5 231.3c-28 0-50.6-14.9-50.6-33.3v-74.4c0-18.4 22.6-33.3 50.6-33.3 27.9 0 50.6 14.9 50.6 33.3v74.4c0 18.4-22.7 33.3-50.6 33.3z"/>
  </g>
</svg>