<svg version="1.2" xmlns="http://www.w3.org/2000/svg" viewBox="0 0 286 292" height="400">
  <defs>
    <linearGradient id="P" gradientUnits="userSpaceOnUse"/>
      <linearGradient id="g1" x1=".5" y1="242.9" x2="68.2" y2="242.9" href="#P">
        <stop stop-color="#ff3d2d"/>
        <stop offset="1" stop-color="#ffa151"/>
      </linearGradient>
      <linearGradient id="g2" x1="215.1" y1="-2.1" x2="282.5" y2="-2.1" href="#P">
        <stop stop-color="#ff3d2d"/>
        <stop offset="1" stop-color="#ffa151"/>
      </linearGradient>
      <linearGradient id="g3" x1="107.8" y1="142.3" x2="175.5" y2="142.3" href="#P">
        <stop stop-color="#ff3d2d"/>
        <stop offset="1" stop-color="#ffa151"/>
      </linearGradient>
      <linearGradient id="g4" x1="3.9" y1="247.4" x2="71.6" y2="247.4" href="#P">
        <stop stop-color="#0b1d2f"/>
        <stop offset="1" stop-color="#03bfeb"/>
      </linearGradient>
      <linearGradient id="g5" x1="218.5" y1="2.5" x2="286" y2="2.5" href="#P">
        <stop stop-color="#0b1d2f"/>
        <stop offset="1" stop-color="#03bfeb"/>
      </linearGradient>
      <linearGradient id="g6" x1="111.2" y1="146.8" x2="178.9" y2="146.8" href="#P">
        <stop stop-color="#0b1d2f"/>
        <stop offset="1" stop-color="#03bfeb"/>
      </linearGradient>
  </defs>
    <style>.a{fill:url(#g1)}.b{fill:url(#g2)}.c{fill:url(#g3)}.d{fill:url(#g4)}.e{fill:url(#g5)}.f{fill:url(#g6)}</style>
    <path class="a" d="m0.5 285.7c9.6-4.6 34.6-17.4 67.7-40.8v42.6h-67.7z"/>
    <path class="b" d="m282.5 284.8v0.1h-67.4v-184.6c22.8-29.2 45.3-62.6 66.5-100.4q0.6 11.5 0.9 24v260.9z"/>
    <path class="c" d="m175.5 144.3v140.6h-67.7v-75.4c21.3-17.9 44.3-39.6 67.7-65.2z"/>
    <path class="d" d="m3.9 290.2c9.6-4.6 34.6-17.3 67.7-40.8v42.7h-67.7z"/>
    <path class="e" d="m285.9 289.3v0.2h-67.4v-184.6c22.8-29.3 45.4-62.6 66.5-100.4q0.6 11.5 1 23.9v260.9z"/>
    <path class="f" d="m178.9 148.8v140.7h-67.7v-75.4c21.3-18 44.3-39.6 67.7-65.3z"/>
</svg>